<svg id="Layer_1" data-name="Layer 1" xmlns="http://www.w3.org/2000/svg" viewBox="0 0 110.53 122.88"><defs><style>.cls-1{fill:#2394e0;}.cls-1,.cls-2,.cls-3{fill-rule:evenodd;}.cls-2{fill:#a1e367;}.cls-3{fill:#ef4136;}</style></defs><title>world-map-pin</title><path class="cls-1" d="M73,31.83A47.42,47.42,0,0,1,92.9,47.06,18.79,18.79,0,0,0,89,49.44,16.81,16.81,0,0,0,87.39,51l-.29.29a15.75,15.75,0,0,0-1.6,2.1,16.37,16.37,0,0,0-2.27,5.92,19.07,19.07,0,0,0,0,6.44,23.51,23.51,0,0,0,1.92,6.22,28.18,28.18,0,0,0,3.55,5.72,31,31,0,0,0,3.62,3.83,34,34,0,0,0,4.26,3.2,5.26,5.26,0,0,0,2.77.83h.26a5.16,5.16,0,0,0,2-.46,47.25,47.25,0,0,1-83.88,19.21,30.86,30.86,0,0,0,7.77-7.69,30.52,30.52,0,0,0,5-11.39,24.34,24.34,0,0,0,.35-8.09A19.11,19.11,0,0,0,28.44,70l-.2-.35a15.86,15.86,0,0,0-1.43-2,15.7,15.7,0,0,0-1.37-1.48l-.32-.31a18.31,18.31,0,0,0-5.4-3.45v0a16.59,16.59,0,0,0-6.25-1.25,17.16,17.16,0,0,0-3.28.28A47.4,47.4,0,0,1,29.7,35.89a44.58,44.58,0,0,0,4.45,6.74,48.49,48.49,0,0,0,5.63,6v0a51.34,51.34,0,0,0,6.63,5,8.25,8.25,0,0,0,8.92-.07A42.88,42.88,0,0,0,67.77,41.8a43.54,43.54,0,0,0,5.24-10Z"/><path class="cls-2" d="M96.65,89.5c-.11.34-.23.69-.35,1h-.38v-1ZM71.82,34.74a44.71,44.71,0,0,1,18,14.15c-.25.17-.5.36-.74.55A16.81,16.81,0,0,0,87.39,51l-.29.29a15.75,15.75,0,0,0-1.6,2.1,16.37,16.37,0,0,0-2.27,5.92,19.07,19.07,0,0,0,0,6.44,23.51,23.51,0,0,0,1.92,6.22c.15.32.3.63.46.94l-1.13,1.17-.07,4-1.72,1.16L80.87,68.9l-1.1.8L77.3,66.36l-3.71.11-1.41-1.62-1.45.4L67.87,62l-.55.37,1.77,4.52h2v-1h1c.74,2,1.53.83,1.53,2.05,0,4.27-5.27,7.4-8.72,8.2.19.78.12,1.55,1,1.55,1.93,0,1-.34,3.08-.52-.1,4.36-5,9.57-7.09,12.81l.93,6.68c.25,1.45-3,3-4.12,4.62l.53,2.56-1.5.61C57.58,107,55,110,52.16,110H49.08c0-3.6-2.56-8.74-2.56-11.29,0-2.16,1-2.45,1-5.13,0-2.47-2.56-6-2.56-6.66V82.77h-2c-.31-1.14-.12-1.54-1.54-1.54h-.51c-2.24,0-1.86,1-4.11,1H34.72c-1.85,0-5.13-5.94-5.13-6.67V69.44c0-2.66,2.43-5.55,4.11-6.67V60.2L36,57.86l1.29-.22c2.75,0,2.42-1.54,4.1-1.54H46v3.59l5.07,2.17.48-2.19c2.3.54,2.9,1.56,5.73,1.56h1c1.94,0,2-2.58,2-4.61l-4.11.4L54.8,53.84l.54-.32A42.88,42.88,0,0,0,67.77,41.8a44.49,44.49,0,0,0,4-7.06ZM53,54.57a1.67,1.67,0,0,1,.18,1c0,.69-.57.77-1,1l-.7-1.78A8,8,0,0,0,53,54.57Zm-4,.09c-.28,1.36-.67,2.73-2,.93l1.68-.81-.24-.25.53.13Zm-6.19-3.59-.79.31-2.47,2.37c-.26,1.91-.78,2.87-2.77,2.87-1.33,0-.53-.35-2.57-.52V51h4.62l-1.5-3.41-.55.34v-1l.8-.37c.71.71,1.44,1.41,2.2,2.09v0c1,.87,2,1.71,3,2.5Z"/><path class="cls-3" d="M99.75,80.78a.68.68,0,0,1-.78,0,27.55,27.55,0,0,1-6.74-6A21.41,21.41,0,0,1,87.69,65a13,13,0,0,1,1.63-9.16,11,11,0,0,1,2.51-2.79,12.22,12.22,0,0,1,7.69-2.83,11.22,11.22,0,0,1,9.24,5.34,14.54,14.54,0,0,1,1.39,10.5,23.08,23.08,0,0,1-10.4,14.72ZM51.48,47.57a1.07,1.07,0,0,1-1.22,0,42.82,42.82,0,0,1-10.5-9.36,33.36,33.36,0,0,1-7-15.25A20.19,20.19,0,0,1,35.24,8.75a17.39,17.39,0,0,1,3.91-4.34A19,19,0,0,1,51.11,0,16.84,16.84,0,0,1,62.46,4.63a16.65,16.65,0,0,1,3,3.69c2.79,4.58,3.38,10.42,2.16,16.34A36,36,0,0,1,51.48,47.57ZM50.32,9.24a8.93,8.93,0,1,1-8.92,8.92,8.92,8.92,0,0,1,8.92-8.92ZM13.78,100.69a.75.75,0,0,1-.87,0A30.73,30.73,0,0,1,5.33,94,24.17,24.17,0,0,1,.23,83a14.64,14.64,0,0,1,1.83-10.3,13,13,0,0,1,2.82-3.13,13.77,13.77,0,0,1,8.64-3.18,12.18,12.18,0,0,1,8.2,3.34,12.42,12.42,0,0,1,2.19,2.67,16.3,16.3,0,0,1,1.55,11.79,25.9,25.9,0,0,1-11.68,16.54ZM13,73a6.44,6.44,0,1,1-6.44,6.44A6.45,6.45,0,0,1,13,73ZM99,56.15a5.74,5.74,0,1,1-5.73,5.74A5.74,5.74,0,0,1,99,56.15Z"/></svg>